<?xml version="1.0" encoding="UTF-8" standalone="no"?>
<!-- Created with Inkscape (http://www.inkscape.org/) -->

<svg
   width="1672.917"
   height="1238.3103"
   viewBox="0 0 442.62597 327.63626"
   version="1.1"
   id="svg5"
   inkscape:version="1.1 (c68e22c387, 2021-05-23)"
   sodipodi:docname="bg-8.svg"
   xmlns:inkscape="http://www.inkscape.org/namespaces/inkscape"
   xmlns:sodipodi="http://sodipodi.sourceforge.net/DTD/sodipodi-0.dtd"
   xmlns:xlink="http://www.w3.org/1999/xlink"
   xmlns="http://www.w3.org/2000/svg"
   xmlns:svg="http://www.w3.org/2000/svg">
  <sodipodi:namedview
     id="namedview7"
     pagecolor="#505050"
     bordercolor="#ffffff"
     borderopacity="1"
     inkscape:pageshadow="0"
     inkscape:pageopacity="0"
     inkscape:pagecheckerboard="1"
     inkscape:document-units="mm"
     showgrid="false"
     showguides="false"
     inkscape:zoom="0.28923742"
     inkscape:cx="760.62081"
     inkscape:cy="542.80667"
     inkscape:window-width="1335"
     inkscape:window-height="728"
     inkscape:window-x="15"
     inkscape:window-y="0"
     inkscape:window-maximized="0"
     inkscape:current-layer="a15601"
     units="px"
     width="3000px"
     fit-margin-top="0"
     fit-margin-left="0"
     fit-margin-right="0"
     fit-margin-bottom="0"
     inkscape:lockguides="false" />
  <defs
     id="defs2">
    <pattern
       inkscape:collect="always"
       xlink:href="#Packedcircles"
       id="pattern10394"
       patternTransform="matrix(56.304573,68.493695,103.86501,-85.381252,0,0)" />
    <pattern
       inkscape:collect="always"
       xlink:href="#Packedcircles"
       id="pattern4668"
       patternTransform="matrix(159.85611,113.10902,-36.266835,51.255625,-12.179025,-2.9500544)" />
    <pattern
       inkscape:collect="always"
       xlink:href="#Packedcircles"
       id="pattern39020"
       patternTransform="matrix(-73.494831,117.12209,23.8883,14.990053,-2.6999908,114.71048)" />
    <pattern
       inkscape:collect="always"
       patternUnits="userSpaceOnUse"
       width="1"
       height="1.73205080756"
       patternTransform="translate(0,0) scale(10,10)"
       id="Packedcircles"
       inkscape:stockid="Packed circles">
      <circle
         style="fill:black;stroke:none"
         cx="0"
         cy="0.5"
         r="0.5"
         id="circle2120" />
      <circle
         style="fill:black;stroke:none"
         cx="1"
         cy="0.5"
         r="0.5"
         id="circle2122" />
      <circle
         style="fill:black;stroke:none"
         cx="0.5"
         cy="1.36602540378"
         r="0.5"
         id="circle2124" />
      <circle
         style="fill:black;stroke:none"
         cx="0.5"
         cy="-0.366025403784"
         r="0.5"
         id="circle2126" />
    </pattern>
    <linearGradient
       id="linearGradient17016"
       inkscape:swatch="gradient">
      <stop
         style="stop-color:#fc9534;stop-opacity:1;"
         offset="0"
         id="stop17012" />
      <stop
         style="stop-color:#fc9534;stop-opacity:0;"
         offset="1"
         id="stop17014" />
    </linearGradient>
    <linearGradient
       id="linearGradient9488"
       inkscape:swatch="gradient">
      <stop
         style="stop-color:#eb63dc;stop-opacity:0.75686282"
         offset="0"
         id="stop9484" />
      <stop
         style="stop-color:#fdb623;stop-opacity:0.94117647"
         offset="1"
         id="stop22058" />
      <stop
         style="stop-color:#fc9434;stop-opacity:0.88235301"
         offset="1"
         id="stop9486" />
    </linearGradient>
    <linearGradient
       id="linearGradient7540"
       inkscape:swatch="solid">
      <stop
         style="stop-color:#0000ff;stop-opacity:1;"
         offset="0"
         id="stop7538" />
    </linearGradient>
    <linearGradient
       id="linearGradient4703"
       inkscape:swatch="solid">
      <stop
         style="stop-color:#d45500;stop-opacity:1;"
         offset="0"
         id="stop4701" />
    </linearGradient>
    <linearGradient
       id="linearGradient4581"
       inkscape:swatch="solid">
      <stop
         style="stop-color:#000000;stop-opacity:1;"
         offset="0"
         id="stop4579" />
    </linearGradient>
    <marker
       style="overflow:visible"
       id="Arrow1Lend"
       refX="0"
       refY="0"
       orient="auto"
       inkscape:stockid="Arrow1Lend"
       inkscape:isstock="true">
      <path
         transform="matrix(-0.8,0,0,-0.8,-10,0)"
         style="fill:context-stroke;fill-rule:evenodd;stroke:context-stroke;stroke-width:1pt"
         d="M 0,0 5,-5 -12.5,0 5,5 Z"
         id="path3220" />
    </marker>
    <linearGradient
       id="linearGradient3091"
       inkscape:swatch="solid">
      <stop
         style="stop-color:#000000;stop-opacity:1;"
         offset="0"
         id="stop3089" />
    </linearGradient>
    <filter
       inkscape:collect="always"
       style="color-interpolation-filters:sRGB"
       id="filter5603"
       x="-0.014183495"
       y="-0.0093338782"
       width="1.028367"
       height="1.0186678">
      <feGaussianBlur
         inkscape:collect="always"
         stdDeviation="1.2165205"
         id="feGaussianBlur5605" />
    </filter>
  </defs>
  <g
     inkscape:label="Warstwa 1"
     inkscape:groupmode="layer"
     id="layer1"
     style="display:inline"
     transform="translate(116.40932,14.977536)">
    <a
       id="a15601"
       style="fill:#fc9534;fill-opacity:0.945652;stroke-width:0.888326"
       transform="matrix(1.077748,0,0,1.175812,-10.900333,-39.889398)">
      <rect
         style="opacity:0.423077;mix-blend-mode:hue;fill:url(#pattern39020);fill-opacity:1;fill-rule:evenodd;stroke:url(#pattern4668);stroke-width:0.159074;stroke-linejoin:round;stroke-miterlimit:4;stroke-dasharray:0.159074, 0.954436;stroke-dashoffset:0;stroke-opacity:1;paint-order:normal;filter:url(#filter5603)"
         id="rect846"
         width="211.45609"
         height="321.32263"
         x="0"
         y="0.68119264"
         transform="matrix(2.0482268,-0.09571434,0,1.0692025,-105.61653,28.959942)"
         inkscape:transform-center-x="-61.830089"
         inkscape:transform-center-y="48.90328"
         ry="89.468048" />
      <path
         style="fill:none;fill-opacity:0.67;stroke-width:0.888326"
         d="m -7.7790764,1359.4517 -23.3372296,-1.0223 v -57.5883 -57.5884 l 11.000123,-11.3492 c 12.1482078,-12.5338 11.0520802,-18.1914 -2.342093,-12.0886 l -8.65803,3.9449 V 1122.6132 1021.4666 L -7.7790764,998.79058 C 5.0563997,986.31878 31.894213,962.03866 51.86051,944.83473 c 41.982361,-36.17398 53.97784,-48.41172 50.68301,-51.70655 -2.902066,-2.90208 -22.522349,7.83923 -61.055112,33.42517 -30.267111,20.0975 -66.598582,41.5095 -70.432542,41.5095 -1.194695,0 -2.172172,-34.27451 -2.172172,-76.1656 V 815.73169 L 2.9679631,778.66847 C 42.444155,735.74211 122.50278,657.49034 157.41927,627.70298 c 71.60893,-61.08978 81.27804,-80.32208 20.378,-40.53279 -59.48069,38.86195 -93.326059,58.31223 -120.423165,69.20484 -35.858148,14.41445 -50.968976,16.80809 -58.5089167,9.26813 -12.8871993,-12.8872 -3.8888868,-42.4739 30.4653767,-100.17106 21.790846,-36.59721 26.032437,-46.867 19.356794,-46.867 -1.745234,0 -20.415018,18.2438 -41.488408,40.54181 l -38.315257,40.54182 v -91.9007 -91.90069 L -6.0503928,400.46457 C 7.7358594,391.9821 34.420263,378.45203 53.24828,370.39786 c 40.520583,-17.33383 56.40418,-18.14375 63.51275,-3.23873 3.81685,8.00308 3.41393,12.40459 -2.84842,31.11631 -4.01177,11.98707 -15.260548,35.01912 -24.997272,51.18231 -22.312977,37.04006 -37.131693,65.68998 -33.977104,65.68998 1.336784,0 38.141776,-36.80713 81.788866,-81.7936 43.6471,-44.98647 100.76758,-150.11758 131.21887,-127.40834 253.41808,188.98809 383.34035,327.27632 62.68127,-62.90518 -2.55297,-3.10648 -10.41407,1.40217 -70.38914,39.47142 -55.58884,35.28509 -99.12681,56.15601 -124.25944,59.56656 -16.7028,2.26662 -19.37006,1.75362 -23.80534,-4.57862 -2.74721,-3.92221 -4.99493,-9.93561 -4.99493,-13.36311 0,-13.18467 14.14063,-45.4027 36.17638,-82.42429 12.62088,-21.20393 22.42184,-41.08974 21.77993,-44.19066 -0.78349,-3.78478 -32.94554,26.18269 -97.844724,91.16826 l -96.677598,96.80628 -0.916002,-105.23181 -0.916001,-105.2318 11.051782,-11.40255 c 12.1935958,-12.5806 11.1234375,-18.25364 -2.290433,-12.14187 l -8.65803,3.94486 V 58.976307 -37.480669 L -9.5077601,-39.45282 C 27.38786,-42.820186 190.27694,-49.43386 192.07331,-47.637484 194.62582,-45.084979 103.95425,43.281734 60.503928,80.587429 18.336158,116.79195 4.7504987,130.36818 7.7185207,133.3362 10.5943,136.21198 35.436469,122.88854 69.147346,100.39047 115.37258,69.540539 158.70105,46.234388 184.46899,38.359577 c 39.52112,-12.077853 49.24677,-9.211398 48.31359,14.239523 -0.7513,18.880292 -9.93835,40.09086 -35.80916,82.6743 -11.35623,18.6924 -20.64769,36.35397 -20.64769,39.24794 0,10.68179 8.9937,4.56676 34.21193,-23.26152 43.40817,-47.90085 145.15221,-147.9578268 184.70228,-181.63962 33.37611,-28.423909 38.86589,-31.852812 50.99741,-31.852812 12.92845,0 132.95348,-5.651488 172.00119,-8.098831 19.92467,-1.248794 19.69002,-1.640707 12.41959,20.742766 -1.19062,3.665584 -0.8298,4.903249 0.84961,2.914218 1.60553,-1.901552 9.36611,-8.454276 17.24573,-14.561611 l 14.32657,-11.104245 109.58561,-5.583178 c 60.27208,-3.07075 110.30817,-4.860612 111.19132,-3.977476 0.88312,0.883136 -9.75168,11.504106 -23.6329,23.602157 -36.20303,31.552415 -56.41162,52.5280511 -52.0181,53.9925538 4.8111,1.6037068 22.22994,-7.1888108 42.30639,-21.3550268 8.55698,-6.037929 33.18979,-21.725509 54.73956,-34.861288 42.13995,-25.686642 53.42946,-28.757306 107.32458,-29.191438 l 22.0407,-0.177539 -2.2437,11.236444 c -3.0657,15.353307 -19.722,50.248657 -38.15287,79.9312687 -8.41966,13.5597493 -16.40638,29.1077723 -17.74829,34.5511583 l -2.4398,9.897067 9.21064,-6.035039 c 5.06587,-3.319273 34.16752,-33.0572161 64.67052,-66.084319 30.5029,-33.027103 58.8539,-61.919913 63.0022,-64.20625 7.2775,-4.010931 233.5822,-17.28921 237.4573,-13.93264 2.5314,2.19263 -96.4255,97.8878216 -141.6752,137.005481 -21.3937,18.494488 -42.9733,38.590944 -47.9548,44.658793 -4.9815,6.067849 -10.6382,12.175489 -12.5703,13.572535 -6.96,5.032413 0.7327,2.476239 19.1772,-6.372315 10.339,-4.960057 28.1331,-15.609083 39.5424,-23.664504 72.181,-50.9626311 149.9811,-84.294231 165.9054,-71.07823 12.5085,10.38107359 1.7256,46.507122 -28.7325,96.263035 -41.4849,67.768985 -31.2184,65.817515 37.8564,-7.195829 59.9932,-63.413938 111.6462,-113.342651 167.5535,-161.960074 l 38.1473,-33.173142 27.1787,-2.46287 c 14.9484,-1.35459 28.0784,-2.55802 29.1778,-2.6743 1.0995,-0.11628 8.6113,-0.0272 16.6929,0.198 l 14.6938,0.40942 V -55.744184 9.5194875 L 1629.208,52.298544 c -24.2868,23.528481 -59.6816,56.217506 -78.6551,72.642276 -39.9547,34.58743 -59.0716,53.89338 -56.2046,56.76036 2.9167,2.91674 27.6452,-10.33184 61.467,-32.93171 45.6392,-30.49635 105.0609,-62.335287 116.3377,-62.335287 0.667,0 1.2128,24.723147 1.2128,54.940317 0,47.15167 -0.9613,57.07692 -6.7811,70.01169 -6.7365,14.97235 -6.7365,15.07863 0,16.17617 6.4848,1.05654 6.7811,4.25958 6.7811,73.30729 v 72.20244 l -16.4225,7.63349 c -10.7211,4.98335 -23.5817,7.74022 -37.044,7.94088 -19.2049,0.28627 -20.8414,-0.31012 -23.8222,-8.68162 -4.581,-12.86549 5.6817,-42.89611 26.3397,-77.07519 22.4884,-37.20743 31.1106,-54.20578 28.7121,-56.60437 -4.266,-4.26594 -20.679,8.66309 -42.6328,33.58318 -39.2894,44.59792 -100.9275,106.36479 -146.0297,146.33466 -53.2263,47.16945 -82.9768,75.69553 -82.9768,79.56159 0,5.09232 14.7774,-1.32227 38.031,-16.50844 83.6401,-54.62285 143.2368,-84.7443 167.6703,-84.7443 28.8559,0 24.5951,34.13473 -11.8678,95.07761 -44.3189,74.07298 -37.608,72.79493 40.2621,-7.66782 l 59.4985,-61.47953 0.1411,99.23322 0.141,99.23322 -16.1078,11.08245 c -58.6304,40.33876 -138.0609,79.14128 -162.0057,79.14128 -23.7197,0 -18.7408,-40.0889 10.9755,-88.37114 31.8254,-51.70897 36.3097,-64.27049 20.8224,-58.32744 -2.8532,1.09487 -23.8391,22.49238 -46.6355,47.55003 -48.183,52.96269 -100.2035,103.99256 -156.243,153.26762 -45.1788,39.72532 -60.8871,55.5573 -57.9939,58.45049 3.0135,3.01351 26.8455,-10.02488 69.6856,-38.1248 66.1723,-43.40407 126.4715,-69.21297 145.0503,-62.0836 16.8584,6.46918 7.3539,43.83734 -24.9212,97.98106 -19.8413,33.28512 -29.3088,52.09745 -27.2533,54.15302 2.7007,2.70066 31.5354,-24.07876 63.5773,-59.04554 39.9425,-43.58855 115.4782,-117.53154 153.436,-150.20069 l 25.8846,-22.27806 0.9857,103.52619 0.9858,103.52624 -33.0809,31.1163 c -18.1945,17.11397 -33.0293,32.28317 -32.9664,33.70933 0.249,5.64236 9.9468,1.69958 36.4169,-14.8059 l 27.6589,-17.2468 0.9222,92.39023 0.9222,92.39026 -28.5812,28.9002 c -15.7196,15.8952 -46.4651,44.7364 -68.3233,64.0917 -21.8583,19.3553 -49.8385,44.8101 -62.1783,56.5662 -37.4359,35.6653 -20.6743,32.6099 39.6112,-7.2205 43.4544,-28.7103 84.2481,-51.5926 105.0805,-58.9428 l 14.2754,-5.0366 v 54.7815 c 0,47.2444 -0.8325,55.729 -6.0504,61.6683 -5.5372,6.3027 -13.235,7.2179 -90.7559,10.79 -46.588,2.1467 -91.5889,3.8874 -100.002,3.8683 l -15.2965,-0.035 7.5175,-8.0019 c 15.6936,-16.7051 6.1698,-17.1614 -20.0756,-0.9618 l -19.0859,11.7805 -78.9386,4.0683 c -43.4162,2.2375 -79.5348,3.4719 -80.2636,2.7431 -0.7289,-0.7288 6.6021,-14.473 16.291,-30.5426 17.4329,-28.9133 25.6413,-48.2329 20.4931,-48.2329 -3.5167,0 -39.0673,34.3688 -62.9935,60.8995 l -19.0645,21.1398 -116.8377,5.8315 c -64.2608,3.2074 -117.47795,5.1914 -118.26038,4.409 -0.78247,-0.7825 23.86968,-23.8103 54.78258,-51.173 71.9604,-63.696 91.9249,-83.2476 86.8324,-85.0366 -5.0237,-1.765 -21.9361,6.6312 -42.5871,21.1424 -59.3522,41.706 -137.73913,81.2295 -161.55223,81.4564 -8.07426,0.077 -12.67913,-2.2173 -16.66696,-8.3034 -5.0591,-7.7212 -5.02432,-10.1414 0.42467,-29.5615 3.2642,-11.6334 15.20664,-36.8338 26.53882,-56.0007 42.44672,-71.7935 38.1889,-75.5681 -17.82187,-15.7996 -47.74603,50.9493 -132.49278,135.0041 -148.25696,147.0465 -10.99429,8.3986 -14.14568,8.8208 -98.53496,13.2002 -47.9476,2.4882 -97.83942,4.5958 -110.87072,4.6834 l -23.6933,0.1594 21.89654,-25.066 c 36.58244,-41.8775 133.62189,-137.0235 178.1284,-174.6528 69.0726,-58.3995 68.80317,-71.5263 -0.51421,-25.0541 -63.90646,42.8446 -131.85963,76.1059 -155.48503,76.1059 -8.93381,0 -19.11202,-11.3881 -19.11202,-21.3838 0,-11.3285 14.05133,-43.5716 31.57866,-72.4625 22.17472,-36.5512 31.93325,-58.264 26.20937,-58.316 -2.30935,-0.021 -24.31314,21.3715 -48.89734,47.5388 -58.76214,62.5463 -110.69425,113.171 -167.92959,163.7021 -42.92601,37.8979 -62.8495,58.4719 -56.62317,58.4719 4.29108,0 39.92897,-20.9915 70.45264,-41.4983 42.55691,-28.591 101.6401,-57.6432 126.19391,-62.0516 18.24812,-3.2763 21.26423,-3.0151 25.06591,2.1704 11.20526,15.284 3.3281,41.2053 -29.27366,96.3307 -23.40399,39.5733 -23.44956,39.6225 -36.7038,39.6225 -15.60925,0 -137.80132,6.0088 -175.04733,8.608 l -25.80371,1.8006 14.56726,-14.8429 c 25.19024,-25.667 19.49354,-26.2658 -20.24749,-2.1282 l -29.04162,17.6391 -53.64166,3.252 c -53.75317,3.2587 -90.33075,3.724 -92.87342,1.1813 -0.74692,-0.7469 8.94153,-18.8831 21.52988,-40.3026 37.15115,-63.2138 30.25384,-62.7234 -30.63675,2.1781 -39.166023,41.746 -41.209804,43.3644 -54.945506,43.5094 -7.846498,0.083 -20.489624,1.2496 -28.095832,2.593 -7.606208,1.3433 -24.3312223,1.9824 -37.1666984,1.4201 z M 210.72305,1219.5863 c 47.76277,-52.3308 112.1358,-116.7576 150.48433,-150.6099 102.7115,-90.6692 110.64903,-106.2203 26.01776,-50.9737 -51.64221,33.7116 -93.05057,55.962 -118.77901,63.8247 -29.43461,8.9954 -39.01355,9.1175 -43.59561,0.5559 -8.7205,-16.2944 0.52505,-45.5628 28.51739,-90.27664 20.05045,-32.02777 28.81768,-50.71637 25.39694,-54.13712 -1.21695,-1.21696 -13.48394,9.42468 -27.25997,23.64808 -105.66149,109.09268 -146.80027,149.62128 -186.689,183.91998 -50.228286,43.1893 -60.153634,53.0688 -56.7421045,56.4803 3.3683855,3.3684 17.4733715,-3.9148 50.9605945,-26.3141 65.20692,-43.6162 115.46736,-68.383 150.93228,-74.3747 12.48571,-2.1095 14.74742,-1.4594 18.35146,5.2748 2.26086,4.2245 3.38423,14.1257 2.49638,22.0027 -1.73302,15.3753 -20.44791,55.3921 -37.48934,80.161 -31.6208,45.9593 -20.8106,52.6815 17.3979,10.8187 z m 1139.80315,-41.2211 c 11.4911,-12.0317 35.6589,-37.434 53.7061,-56.4495 43.6418,-45.9832 90.028,-90.4094 134.2962,-128.62158 42.0368,-36.2861 53.9711,-48.47464 50.683,-51.7628 -3.022,-3.02191 -22.87,7.90036 -66.3874,36.53262 -71.0131,46.72306 -138.0649,74.15046 -152.3309,62.31076 -13.3387,-11.0702 -0.3765,-50.90819 35.1264,-107.95773 8.4471,-13.57355 15.3584,-27.13096 15.3584,-30.12756 0,-2.99657 1.8669,-7.31531 4.1488,-9.59717 2.2819,-2.28186 3.0775,-4.14884 1.7682,-4.14884 -4.6766,0 -18.404,12.48628 -43.6952,39.74434 -43.5296,46.91495 -149.7885,150.68386 -183.9223,179.61226 -17.8288,15.11 -37.0795,32.8782 -42.7793,39.4849 l -10.3632,12.0122 10.0849,-2.5312 c 5.5467,-1.3921 28.8799,-14.6404 51.8517,-29.4405 73.5999,-47.419 111.7189,-66.4773 142.9521,-71.4717 35.1926,-5.6275 29.5369,36.0389 -14.5237,106.9979 -8.4197,13.5597 -16.4045,29.1001 -17.744,34.5341 -2.2111,8.9695 -1.8221,9.5517 4.2208,6.3176 3.661,-1.9593 16.0582,-13.4065 27.5494,-25.4381 z m -329.046,-109.1063 c 56.816,-60.7117 112.559,-115.00492 167.952,-163.58383 42.2491,-37.05185 66.4069,-62.07745 59.9248,-62.07745 -4.2382,0 -40.0368,21.10298 -70.3947,41.49705 -63.987,42.98562 -137.2375,73.14414 -150.64,62.02106 -13.3802,-11.10461 -2.916,-44.62075 32.822,-105.12644 9.5798,-16.21896 18.4717,-33.68793 19.7597,-38.81994 2.3175,-9.2337 2.1715,-9.19134 -14.0064,4.06531 -8.9916,7.36796 -30.8176,29.84344 -48.5022,49.94554 -37.23594,42.3262 -91.44058,95.21562 -145.49901,141.96867 -41.59583,35.97463 -71.86867,65.79123 -69.35257,68.30733 2.25503,2.255 30.20947,-13.6574 86.72826,-49.3682 47.35961,-29.92354 105.16388,-56.65846 122.90942,-56.84647 28.4741,-0.30183 21.9492,41.59047 -15.95358,102.42647 -19.71906,31.6502 -27.45468,49.5785 -21.4324,49.6723 2.40246,0.037 22.96055,-19.7992 45.68468,-44.0814 z M 673.82834,981.04626 c 20.16333,-21.3824 56.5245,-58.96657 80.80254,-83.52041 35.4923,-35.8955 43.7469,-46.06109 42.12626,-51.8788 -1.36604,-4.90373 -1.00865,-5.78999 1.10906,-2.75013 2.50901,3.60157 3.99955,3.43126 7.56458,-0.86434 2.4419,-2.94233 6.32999,-5.34969 8.6402,-5.34969 5.26291,0 76.34057,-61.67466 87.47734,-75.90484 4.53223,-5.79113 7.28778,-10.52934 6.12345,-10.52934 -4.89771,0 -32.76464,15.9916 -70.03869,40.19206 -76.38583,49.59411 -139.26359,75.36411 -152.23518,62.39252 -12.4273,-12.4273 -1.26153,-51.03126 27.98345,-96.74851 16.17885,-25.29161 27.42494,-47.54724 25.16721,-49.805 -0.99576,-0.99573 -7.7165,2.91255 -14.93503,8.68511 -19.92799,15.93615 -40.6297,38.31873 -37.9342,41.01426 2.44253,2.4425 -10.68904,18.47113 -15.13259,18.47113 -1.339,0 -24.01878,21.39246 -50.39953,47.5388 -26.38071,26.14634 -70.52158,67.28642 -98.09076,91.4224 -50.4163,44.13793 -63.43294,58.10873 -54.14006,58.10873 4.44611,0 27.18193,-13.67174 90.955,-54.69399 31.86773,-20.49901 84.58249,-44.44356 105.0491,-47.7163 18.00822,-2.87964 24.11894,2.39329 24.01353,20.72114 -0.10442,18.17113 -10.98039,44.09277 -34.99952,83.41784 -19.70599,32.2635 -25.69789,46.6745 -19.40655,46.6745 2.00185,0 20.13702,-17.4947 40.30039,-38.87714 z M 784.82238,841.66489 c 0,-2.96456 1.58119,-4.41285 3.51376,-3.21847 1.93256,1.19438 2.61867,3.61994 1.52463,5.39011 -2.96376,4.7955 -5.03839,3.90132 -5.03839,-2.17164 z m -103.8236,-53.57682 c -2.09178,-3.90852 -3.19765,-8.92315 -2.4575,-11.14361 0.74016,-2.22046 3.09386,0.97743 5.23041,7.10641 4.38986,12.5927 2.93752,14.70722 -2.77291,4.0372 z m -335.3675,84.89718 c 44.60035,-49.54543 100.75726,-104.46394 157.4047,-153.93344 22.81261,-19.92197 44.32459,-39.73075 47.80443,-44.01951 3.47981,-4.28873 8.65227,-10.12304 11.49433,-12.96513 13.90474,-13.9047 -17.52003,2.93966 -84.33248,45.20414 -46.19181,29.22019 -96.38421,52.90464 -118.3638,55.8527 -10.77005,1.44456 -13.91635,0.37347 -18.61709,-6.33777 -3.11122,-4.44185 -5.65674,-10.78318 -5.65674,-14.09185 0,-10.56371 13.21133,-41.72828 29.77471,-70.23645 34.20819,-58.87755 36.33969,-64.06004 24.47491,-59.5071 -2.65312,1.01813 -26.32861,24.93651 -52.61221,53.15198 C 284.60515,722.351 228.35165,776.78476 163.269,834.21575 c -23.24363,20.51093 -42.26114,38.79176 -42.26114,40.62406 0,7.6255 12.17798,1.62735 60.95805,-30.02423 80.67123,-52.34461 144.04523,-78.97467 158.80061,-66.72881 6.95343,5.77083 6.19332,27.57811 -1.65528,47.49019 -3.64403,9.24497 -16.86846,34.0179 -29.38762,55.05097 -12.51917,21.0331 -22.76213,40.06345 -22.76213,42.28972 0,9.20942 23.22178,-10.55406 58.66979,-49.9324 z M 1155.0146,724.85759 c 59.3754,-63.10964 89.1452,-91.83715 158.2019,-152.6633 23.7474,-20.91707 45.4391,-41.5124 48.2037,-45.76738 4.9705,-7.65016 4.9023,-7.69303 -6.128,-3.84788 -6.1349,2.13869 -26.9265,14.25718 -46.2034,26.92999 -56.3298,37.03175 -96.6598,58.97563 -124.8313,67.92174 -31.8041,10.09966 -38.5515,10.35976 -43.2047,1.66528 -9.3747,-17.51686 -1.0233,-43.24258 31.5,-97.03358 10.9224,-18.06474 20.9437,-37.33379 22.2697,-42.82008 l 2.4108,-9.97509 -11.1378,8.23451 c -6.1258,4.52902 -31.8578,30.87613 -57.1823,58.54921 -43.6873,47.73874 -95.4296,97.75419 -160.81785,155.4507 -36.17776,31.92208 -49.65734,46.23897 -44.99729,47.79233 4.49329,1.49776 36.8102,-16.48483 63.98031,-35.60155 46.45423,-32.68495 103.26473,-60.01336 137.13483,-65.96813 11.0703,-1.94625 13.413,-1.09301 18.5581,6.75943 9.861,15.04979 1.34,40.00555 -33.1616,97.1215 -18.7599,31.05625 -24.8089,48.09595 -15.8541,44.65968 2.9998,-1.15114 30.5663,-28.78445 61.259,-61.40738 z M 791.40472,652.57808 c 58.84737,-62.79381 124.16952,-126.34413 175.89643,-171.12544 40.86215,-35.37533 52.62225,-47.5101 52.62225,-54.29871 0,-3.62204 -33.61132,14.91567 -61.60421,33.97669 -71.02677,48.36376 -143.99243,79.42091 -158.43362,67.43581 -7.10319,-5.89516 -5.48736,-30.13877 3.42909,-51.44974 4.37585,-10.45854 16.75828,-33.41674 27.51657,-51.01823 10.75825,-17.60149 20.59868,-36.13934 21.86764,-41.19525 l 2.30717,-9.19252 -12.55135,9.57338 c -6.90323,5.26536 -33.68939,32.61196 -59.52477,60.77021 -47.66278,51.94819 -95.71224,98.15587 -159.66499,153.54487 -64.4112,55.78607 -58.25595,63.38706 12.89065,15.91844 48.65432,-32.46188 91.36747,-55.52926 119.16999,-64.3582 32.74459,-10.39834 38.35735,-10.41639 45.0875,-0.14486 9.57908,14.61951 0.14417,42.8234 -31.37333,93.78447 -19.10071,30.88425 -27.37934,50.13183 -21.56229,50.13183 2.32996,0 22.09721,-19.05874 43.92727,-42.35275 z m -351.24183,-84.6675 c 65.13383,-68.65374 131.74305,-134.15049 173.37996,-170.48431 48.09633,-41.97053 64.10114,-57.50943 64.10114,-62.23513 0,-5.04893 -29.79898,10.97226 -71.37579,38.37456 -70.45126,46.43283 -133.12811,71.75815 -148.95344,60.18641 -13.63714,-9.97174 -2.83124,-46.59612 28.6745,-97.18636 20.36085,-32.69435 27.52479,-49.60426 21.01502,-49.60426 -2.62839,0 -30.81973,27.61572 -62.64743,61.36827 -59.14404,62.72093 -106.03883,107.88272 -164.3101,158.23817 -37.56595,32.46281 -46.9967,42.25501 -43.78673,45.46496 3.3929,3.39293 18.00887,-4.16111 50.70147,-26.20414 67.3547,-45.41408 124.48921,-73.29045 151.98859,-74.15652 13.58981,-0.42799 15.97346,0.63574 20.02992,8.93836 4.05151,8.29253 3.61149,12.27926 -3.6644,33.20103 -4.54782,13.07725 -17.83911,39.52967 -29.53618,58.78313 -11.69711,19.25346 -21.26745,37.06291 -21.26745,39.57655 0,2.51368 -1.86697,6.43728 -4.14884,8.71914 -3.22686,3.22686 -3.17956,4.14884 0.21298,4.14884 2.39896,0 20.21305,-16.70794 39.58685,-37.1287 z M 1280.6214,388.82099 c 62.4805,-64.72247 94.4028,-95.23788 169.1771,-161.72112 29.8742,-26.56167 35.4192,-38.17945 12.6877,-26.58268 -7.5953,3.87484 -34.2294,20.33017 -59.1869,36.56735 -74.3166,48.35007 -133.0193,70.66444 -147.5835,56.10021 -10.8417,-10.84172 0.2534,-45.04372 31.6025,-97.41727 19.9649,-33.35479 25.7961,-47.10069 19.9807,-47.10069 -4.4925,0 -35.4244,30.71085 -91.6466,90.99172 -39.9062,42.78714 -113.7265,112.02271 -153.3372,143.81404 -14.948,11.99716 -27.006,27.20564 -23.9739,30.23775 2.5861,2.58608 21.0303,-7.73686 64.5589,-36.13263 52.299,-34.11717 110.5334,-62.50146 133.8351,-65.2333 16.8988,-1.98114 18.2627,-1.5646 22.0429,6.73229 2.222,4.87658 3.0594,14.00348 1.8668,20.34509 -2.8411,15.1071 -19.5073,50.02814 -38.391,80.44118 -16.8502,27.13798 -23.1593,44.76872 -14.8839,41.5932 2.7365,-1.05011 35.6996,-33.73592 73.2513,-72.63514 z M 872.83488,361.17515 c 6.319,-4.8197 34.90707,-34.19374 63.52906,-65.27564 28.62199,-31.08187 78.17926,-79.64722 110.12716,-107.923 71.2522,-63.06224 87.5254,-78.69116 87.5254,-84.06025 0,-5.175692 -21.2952,6.53074 -83.8504,46.09451 -43.9548,27.7997 -106.89372,57.43127 -121.98692,57.43127 -3.43549,0 -9.0915,-2.57486 -12.56895,-5.7219 -13.8815,-12.56258 -4.2573,-44.75076 30.33528,-101.45649 36.02142,-59.04788 27.73397,-59.875425 -25.96769,-2.593024 -56.28646,60.039514 -115.35717,117.600774 -171.4578,167.076444 -47.67412,42.04425 -61.44948,56.78809 -53.0579,56.78809 5.18267,0 27.64311,-13.11787 66.88737,-39.06507 55.28756,-36.55461 115.55984,-64.65595 138.67525,-64.65595 13.24234,0 19.63802,9.58593 17.12005,25.65979 -2.67106,17.05107 -17.29863,49.22634 -34.85998,76.67915 -13.16714,20.58354 -27.11271,49.78522 -23.77548,49.78522 1.01007,0 7.00656,-3.9434 13.32555,-8.76315 z M 557.84373,239.42269 C 618.70428,174.59142 696.17157,99.090412 740.71291,61.19508 778.59428,28.966003 799.91023,6.9147346 793.18326,6.9147346 c -4.68608,0 -38.52942,18.4407714 -53.28263,29.0329864 -35.17947,25.257409 -95.78238,58.340241 -124.48859,67.957709 -35.35767,11.84591 -35.82759,11.8979 -42.97079,4.75468 C 559.32313,95.542008 570.5863,57.426667 602.17651,8.0340123 642.61502,-55.193412 631.23575,-54.042973 570.50053,11.236444 514.30614,71.63523 469.182,115.46326 407.50879,169.54645 c -44.39371,38.93024 -62.89218,58.63979 -55.03659,58.63979 4.4496,0 52.54261,-28.40015 73.32917,-43.30277 8.85688,-6.34978 32.19411,-20.08045 51.86051,-30.5126 71.16112,-37.74775 103.63676,-39.15151 98.22709,-4.24586 -2.5478,16.4393 -19.5399,52.35349 -41.0227,86.70465 -15.91869,25.45418 -21.49272,39.75972 -15.49205,39.75972 1.96852,0 19.2798,-16.72501 38.46951,-37.16669 z"
         id="path3554"
         transform="matrix(0.24549647,0,0,0.2250218,-97.897641,21.186943)"
         sodipodi:nodetypes="ccccsscccsssssscsssssssscccccsssssssssssssscccsscccsssssssssssssssscssssssscssscssssssssssssscssscccssssssssscsssssssssssscccssssssssssssscccssscccssssscsssscsscssssscssssssssssssscsssssssssssssssscsscssssssscssssssssssssssssssssssssssssscscssssssssssssssssssscssssssssssssssssssssssssssssssssssssssssssssssssssssssssssssscsssssssssssssssssscsssssssssssssssssssssssssssssssssssssssssssssssssssssssssssssssssssssssssssssss" />
      <use
         id="use3743"
         inkscape:spray-origin="#path3554"
         xlink:href="#path3554"
         x="0"
         y="0"
         width="100%"
         height="100%"
         transform="translate(-112.73518,47.276014)" />
      <use
         id="use3745"
         inkscape:spray-origin="#path3554"
         xlink:href="#path3554"
         x="0"
         y="0"
         width="100%"
         height="100%"
         transform="translate(-111.56513,54.693537)" />
      <use
         id="use3747"
         inkscape:spray-origin="#path3554"
         xlink:href="#path3554"
         x="0"
         y="0"
         width="100%"
         height="100%"
         transform="translate(-86.910581,29.561344)" />
      <use
         id="use3749"
         inkscape:spray-origin="#path3554"
         xlink:href="#path3554"
         x="0"
         y="0"
         width="100%"
         height="100%"
         transform="translate(-102.53549,40.721665)" />
      <use
         id="use3751"
         inkscape:spray-origin="#path3554"
         xlink:href="#path3554"
         x="0"
         y="0"
         width="100%"
         height="100%"
         transform="translate(-107.4129,69.825474)" />
      <use
         id="use3753"
         inkscape:spray-origin="#path3554"
         xlink:href="#path3554"
         x="0"
         y="0"
         width="100%"
         height="100%"
         transform="translate(-78.008569,73.817423)" />
      <use
         id="use3755"
         inkscape:spray-origin="#path3554"
         xlink:href="#path3554"
         x="0"
         y="0"
         width="100%"
         height="100%"
         transform="translate(-46.770656,83.625001)" />
      <use
         id="use3757"
         inkscape:spray-origin="#path3554"
         xlink:href="#path3554"
         x="0"
         y="0"
         width="100%"
         height="100%"
         transform="translate(-51.063821,86.059018)" />
      <use
         id="use3759"
         inkscape:spray-origin="#path3554"
         xlink:href="#path3554"
         x="0"
         y="0"
         width="100%"
         height="100%"
         transform="translate(-8.1367929,64.54793)" />
      <use
         id="use3761"
         inkscape:spray-origin="#path3554"
         xlink:href="#path3554"
         x="0"
         y="0"
         width="100%"
         height="100%"
         transform="translate(-12.909917,57.971233)" />
      <use
         id="use3763"
         inkscape:spray-origin="#path3554"
         xlink:href="#path3554"
         x="0"
         y="0"
         width="100%"
         height="100%"
         transform="translate(-30.504005,72.984049)" />
      <use
         id="use3765"
         inkscape:spray-origin="#path3554"
         xlink:href="#path3554"
         x="0"
         y="0"
         width="100%"
         height="100%"
         transform="translate(14.008503,61.85538)" />
      <use
         id="use3767"
         inkscape:spray-origin="#path3554"
         xlink:href="#path3554"
         x="0"
         y="0"
         width="100%"
         height="100%"
         transform="translate(20.120879,70.869518)" />
      <use
         id="use3769"
         inkscape:spray-origin="#path3554"
         xlink:href="#path3554"
         x="0"
         y="0"
         width="100%"
         height="100%"
         transform="translate(56.340851,40.275826)" />
      <use
         id="use3771"
         inkscape:spray-origin="#path3554"
         xlink:href="#path3554"
         x="0"
         y="0"
         width="100%"
         height="100%"
         transform="translate(76.311224,40.414243)" />
      <use
         id="use3773"
         inkscape:spray-origin="#path3554"
         xlink:href="#path3554"
         x="0"
         y="0"
         width="100%"
         height="100%"
         transform="translate(-2.880405,0.28738238)" />
      <use
         id="use3775"
         inkscape:spray-origin="#path3554"
         xlink:href="#path3554"
         x="0"
         y="0"
         width="100%"
         height="100%"
         transform="translate(-5.7136057,-8.4169395)" />
      <use
         id="use3852"
         inkscape:spray-origin="#path3554"
         xlink:href="#path3554"
         x="0"
         y="0"
         width="100%"
         height="100%"
         transform="translate(-46.908806,12.262868)" />
      <use
         id="use3854"
         inkscape:spray-origin="#path3554"
         xlink:href="#path3554"
         x="0"
         y="0"
         width="100%"
         height="100%"
         transform="translate(-72.649081,42.784897)" />
      <use
         id="use3856"
         inkscape:spray-origin="#path3554"
         xlink:href="#path3554"
         x="0"
         y="0"
         width="100%"
         height="100%"
         transform="translate(23.717963,32.469379)" />
      <use
         id="use3858"
         inkscape:spray-origin="#path3554"
         xlink:href="#path3554"
         x="0"
         y="0"
         width="100%"
         height="100%"
         transform="translate(-0.07995044,26.392623)" />
      <use
         id="use3860"
         inkscape:spray-origin="#path3554"
         xlink:href="#path3554"
         x="0"
         y="0"
         width="100%"
         height="100%"
         transform="translate(19.925528,30.405301)" />
      <use
         id="use3862"
         inkscape:spray-origin="#path3554"
         xlink:href="#path3554"
         x="0"
         y="0"
         width="100%"
         height="100%"
         transform="translate(1.6460399,98.727578)" />
      <use
         id="use3864"
         inkscape:spray-origin="#path3554"
         xlink:href="#path3554"
         x="0"
         y="0"
         width="100%"
         height="100%"
         transform="translate(-17.855935,56.122619)" />
      <use
         id="use3866"
         inkscape:spray-origin="#path3554"
         xlink:href="#path3554"
         x="0"
         y="0"
         width="100%"
         height="100%"
         transform="translate(37.036232,59.140202)" />
      <use
         id="use3868"
         inkscape:spray-origin="#path3554"
         xlink:href="#path3554"
         x="0"
         y="0"
         width="100%"
         height="100%"
         transform="translate(59.310206,29.611699)" />
      <use
         id="use3870"
         inkscape:spray-origin="#path3554"
         xlink:href="#path3554"
         x="0"
         y="0"
         width="100%"
         height="100%"
         transform="translate(66.02796,45.519648)" />
      <use
         id="use3872"
         inkscape:spray-origin="#path3554"
         xlink:href="#path3554"
         x="0"
         y="0"
         width="100%"
         height="100%"
         transform="translate(51.262605,52.529292)" />
      <use
         id="use3874"
         inkscape:spray-origin="#path3554"
         xlink:href="#path3554"
         x="0"
         y="0"
         width="100%"
         height="100%"
         transform="translate(-61.07998,22.711507)" />
      <use
         id="use3876"
         inkscape:spray-origin="#path3554"
         xlink:href="#path3554"
         x="0"
         y="0"
         width="100%"
         height="100%"
         transform="translate(-168.01108,22.396069)" />
      <use
         id="use3878"
         inkscape:spray-origin="#path3554"
         xlink:href="#path3554"
         x="0"
         y="0"
         width="100%"
         height="100%"
         transform="translate(-201.33036,34.267913)" />
      <use
         id="use3880"
         inkscape:spray-origin="#path3554"
         xlink:href="#path3554"
         x="0"
         y="0"
         width="100%"
         height="100%"
         transform="translate(-112.85636,14.948066)" />
      <use
         id="use3882"
         inkscape:spray-origin="#path3554"
         xlink:href="#path3554"
         x="0"
         y="0"
         width="100%"
         height="100%"
         transform="translate(-46.597306,25.983367)" />
      <use
         id="use3884"
         inkscape:spray-origin="#path3554"
         xlink:href="#path3554"
         x="0"
         y="0"
         width="100%"
         height="100%"
         transform="translate(-17.838869,14.136334)" />
      <use
         id="use3886"
         inkscape:spray-origin="#path3554"
         xlink:href="#path3554"
         x="0"
         y="0"
         width="100%"
         height="100%"
         transform="translate(-79.040699,-30.136375)" />
      <use
         id="use3888"
         inkscape:spray-origin="#path3554"
         xlink:href="#path3554"
         x="0"
         y="0"
         width="100%"
         height="100%"
         transform="translate(-27.120225,-47.853719)" />
      <use
         id="use3890"
         inkscape:spray-origin="#path3554"
         xlink:href="#path3554"
         x="0"
         y="0"
         width="100%"
         height="100%"
         transform="translate(10.491228,-17.103935)" />
      <use
         id="use3892"
         inkscape:spray-origin="#path3554"
         xlink:href="#path3554"
         x="0"
         y="0"
         width="100%"
         height="100%"
         transform="translate(-26.098759,21.830164)" />
      <use
         id="use3894"
         inkscape:spray-origin="#path3554"
         xlink:href="#path3554"
         x="0"
         y="0"
         width="100%"
         height="100%"
         transform="translate(-56.615283,-13.762761)" />
      <use
         id="use3896"
         inkscape:spray-origin="#path3554"
         xlink:href="#path3554"
         x="0"
         y="0"
         width="100%"
         height="100%"
         transform="translate(-64.434378,-14.320676)" />
      <use
         id="use3898"
         inkscape:spray-origin="#path3554"
         xlink:href="#path3554"
         x="0"
         y="0"
         width="100%"
         height="100%"
         transform="translate(-50.425527,-9.5716433)" />
      <use
         id="use3900"
         inkscape:spray-origin="#path3554"
         xlink:href="#path3554"
         x="0"
         y="0"
         width="100%"
         height="100%"
         transform="translate(-25.36914,1.4608672)" />
      <use
         id="use3902"
         inkscape:spray-origin="#path3554"
         xlink:href="#path3554"
         x="0"
         y="0"
         width="100%"
         height="100%"
         transform="translate(14.435862,-42.575856)" />
      <rect
         style="opacity:0.423077;mix-blend-mode:screen;fill:#ffe6d5;fill-opacity:0.302419;stroke:url(#pattern10394);stroke-width:0.208789;stroke-opacity:0"
         id="rect8104"
         width="289.50546"
         height="240.55103"
         x="-37.649323"
         y="45.630459"
         ry="120.27551"
         rx="69.052414" />
    </a>
    <g
       inkscape:groupmode="layer"
       id="layer2"
       inkscape:label="Warstwa 2"
       style="display:inline" />
  </g>
</svg>
