<?xml version="1.0" encoding="UTF-8" standalone="no"?>
<!-- Created with Inkscape (http://www.inkscape.org/) -->

<svg
   width="1400"
   height="1000"
   viewBox="0 0 370.41667 264.58332"
   version="1.1"
   id="svg5"
   inkscape:version="1.1 (c68e22c387, 2021-05-23)"
   sodipodi:docname="bg-9.svg"
   xmlns:inkscape="http://www.inkscape.org/namespaces/inkscape"
   xmlns:sodipodi="http://sodipodi.sourceforge.net/DTD/sodipodi-0.dtd"
   xmlns="http://www.w3.org/2000/svg"
   xmlns:svg="http://www.w3.org/2000/svg">
  <sodipodi:namedview
     id="namedview7"
     pagecolor="#505050"
     bordercolor="#ffffff"
     borderopacity="1"
     inkscape:pageshadow="0"
     inkscape:pageopacity="0"
     inkscape:pagecheckerboard="1"
     inkscape:document-units="mm"
     showgrid="false"
     units="px"
     inkscape:zoom="0.19420595"
     inkscape:cx="780.09968"
     inkscape:cy="296.07744"
     inkscape:window-width="1366"
     inkscape:window-height="705"
     inkscape:window-x="-8"
     inkscape:window-y="-8"
     inkscape:window-maximized="1"
     inkscape:current-layer="layer1"
     width="1587.4016px" />
  <defs
     id="defs2">
    <rect
       x="334.69623"
       y="118.43097"
       width="128.0926"
       height="254.46741"
       id="rect58454" />
    <rect
       x="1112.2213"
       y="406.78465"
       width="85.875278"
       height="167.50761"
       id="rect42587" />
    <inkscape:perspective
       sodipodi:type="inkscape:persp3d"
       inkscape:vp_x="204.43678 : 314.23895 : 1"
       inkscape:vp_y="-63.121527 : -143.52723 : 0"
       inkscape:vp_z="-134.6377 : 463.35976 : 1"
       inkscape:persp3d-origin="37.683016 : 395.12851 : 1"
       id="perspective34706" />
    <inkscape:perspective
       sodipodi:type="inkscape:persp3d"
       inkscape:vp_x="-182.01233 : 66.615256 : 1"
       inkscape:vp_y="0 : 166.06302 : 0"
       inkscape:vp_z="188.40434 : 66.615256 : 1"
       inkscape:persp3d-origin="3.1960065 : 59.292339 : 1"
       id="perspective20331" />
    <inkscape:perspective
       sodipodi:type="inkscape:persp3d"
       inkscape:vp_x="0 : 116.49114 : 1"
       inkscape:vp_y="0 : 201.0501 : 0"
       inkscape:vp_z="370.41667 : 116.49114 : 1"
       inkscape:persp3d-origin="185.20834 : 107.62539 : 1"
       id="perspective15340" />
    <inkscape:perspective
       sodipodi:type="inkscape:persp3d"
       inkscape:vp_x="-313.7188 : -223.36438 : 1"
       inkscape:vp_y="-642.34024 : 537.12406 : 0"
       inkscape:vp_z="-39.992988 : -1.0690621 : 1"
       inkscape:persp3d-origin="-148.53047 : -135.90239 : 1"
       id="perspective12639" />
    <inkscape:perspective
       sodipodi:type="inkscape:persp3d"
       inkscape:vp_x="130.01723 : 41.063043 : 1"
       inkscape:vp_y="448.40616 : 646.46415 : 0"
       inkscape:vp_z="307.41431 : -81.984665 : 1"
       inkscape:persp3d-origin="187.32735 : -65.713295 : 1"
       id="perspective4041" />
    <inkscape:perspective
       sodipodi:type="inkscape:persp3d"
       inkscape:vp_x="-283.08282 : 23.342861 : 1"
       inkscape:vp_y="0 : 999.99996 : 0"
       inkscape:vp_z="13.917175 : 23.342861 : 1"
       inkscape:persp3d-origin="-134.58282 : -46.657127 : 1"
       id="perspective3018" />
    <inkscape:perspective
       sodipodi:type="inkscape:persp3d"
       inkscape:vp_x="-206.42082 : 80.588537 : 1"
       inkscape:vp_y="0 : 950.30486 : 0"
       inkscape:vp_z="142.23135 : 80.588537 : 1"
       inkscape:persp3d-origin="-32.094735 : 14.067187 : 1"
       id="perspective2743" />
    <inkscape:perspective
       sodipodi:type="inkscape:persp3d"
       inkscape:vp_x="0 : 54.583321 : 1"
       inkscape:vp_y="0 : 999.99996 : 0"
       inkscape:vp_z="297 : 54.583321 : 1"
       inkscape:persp3d-origin="148.5 : -15.416667 : 1"
       id="perspective1507" />
  </defs>
  <g
     inkscape:label="Warstwa 1"
     inkscape:groupmode="layer"
     id="layer1">
    <rect
       style="opacity:0.423077;fill:#000000;fill-opacity:0.9292196;stroke:#6330e5;stroke-width:0.264583;stroke-opacity:0"
       id="rect843"
       width="296.31882"
       height="415.52753"
       x="-222.63185"
       y="8.4783907"
       ry="67.888672"
       transform="rotate(-78.760093)" />
    <g
       sodipodi:type="inkscape:box3d"
       id="g1509"
       style="opacity:0.423077;fill:#da5800;fill-opacity:0.302419;stroke:#6330e5;stroke-opacity:0"
       inkscape:perspectiveID="#perspective1507"
       inkscape:corner0="1.5057471 : 0.16319661 : 0 : 1"
       inkscape:corner7="0.058252406 : -0.0046206693 : 0.25 : 1">
      <path
         sodipodi:type="inkscape:box3dside"
         id="path1521"
         style="fill:#e9e9ff;fill-rule:evenodd;stroke:none;stroke-linejoin:round"
         inkscape:box3dsidetype="11"
         d="M 80.831074,176.18101 170.26531,138.76252 V 267.03844 L 80.831074,237.07821 Z"
         points="170.26531,138.76252 170.26531,267.03844 80.831074,237.07821 80.831074,176.18101 " />
      <path
         sodipodi:type="inkscape:box3dside"
         id="path1511"
         style="fill:#353564;fill-rule:evenodd;stroke:none;stroke-linejoin:round"
         inkscape:box3dsidetype="6"
         d="m 59.263762,172.80686 v 66.97295 l 21.567312,-2.7016 v -60.8972 z"
         points="59.263762,239.77981 80.831074,237.07821 80.831074,176.18101 59.263762,172.80686 " />
      <path
         sodipodi:type="inkscape:box3dside"
         id="path1519"
         style="fill:#afafde;fill-rule:evenodd;stroke:none;stroke-linejoin:round"
         inkscape:box3dsidetype="13"
         d="m 59.263762,239.77981 81.061928,40.7333 29.93962,-13.47467 -89.434236,-29.96023 z"
         points="140.32569,280.51311 170.26531,267.03844 80.831074,237.07821 59.263762,239.77981 " />
      <path
         sodipodi:type="inkscape:box3dside"
         id="path1513"
         style="fill:#4d4d9f;fill-rule:evenodd;stroke:none;stroke-linejoin:round"
         inkscape:box3dsidetype="5"
         d="m 59.263762,172.80686 81.061928,-50.87338 29.93962,16.82904 -89.434236,37.41849 z"
         points="140.32569,121.93348 170.26531,138.76252 80.831074,176.18101 59.263762,172.80686 " />
      <path
         sodipodi:type="inkscape:box3dside"
         id="path1517"
         style="fill:#d7d7ff;fill-rule:evenodd;stroke:none;stroke-linejoin:round"
         inkscape:box3dsidetype="14"
         d="m 140.32569,121.93348 v 158.57963 l 29.93962,-13.47467 V 138.76252 Z"
         points="140.32569,280.51311 170.26531,267.03844 170.26531,138.76252 140.32569,121.93348 " />
      <path
         sodipodi:type="inkscape:box3dside"
         id="path1515"
         style="fill:#8686bf;fill-rule:evenodd;stroke:none;stroke-linejoin:round"
         inkscape:box3dsidetype="3"
         d="M 59.263762,172.80686 140.32569,121.93348 V 280.51311 L 59.263762,239.77981 Z"
         points="140.32569,121.93348 140.32569,280.51311 59.263762,239.77981 59.263762,172.80686 " />
    </g>
    <g
       sodipodi:type="inkscape:box3d"
       id="g1634"
       style="opacity:0.423077;fill:#da5800;fill-opacity:0.302419;stroke:#6330e5;stroke-opacity:0"
       inkscape:perspectiveID="#perspective1507"
       inkscape:corner0="6.2666665 : 0.83370001 : 0 : 1"
       inkscape:corner7="1.5057471 : 0.4374655 : 0.25 : 1">
      <path
         sodipodi:type="inkscape:box3dside"
         id="path1646"
         style="fill:#e9e9ff;fill-rule:evenodd;stroke:none;stroke-linejoin:round"
         inkscape:box3dsidetype="11"
         d="M 29.634147,108.39912 80.831074,-67.12993 V 76.654859 L 29.634147,161.11324 Z"
         points="80.831074,-67.12993 80.831074,76.654859 29.634147,161.11324 29.634147,108.39912 " />
      <path
         sodipodi:type="inkscape:box3dside"
         id="path1636"
         style="fill:#353564;fill-rule:evenodd;stroke:none;stroke-linejoin:round"
         inkscape:box3dsidetype="6"
         d="m 20.43578,104.90367 v 54.52769 l 9.198367,1.68188 v -52.71412 z"
         points="20.43578,159.43136 29.634147,161.11324 29.634147,108.39912 20.43578,104.90367 " />
      <path
         sodipodi:type="inkscape:box3dside"
         id="path1638"
         style="fill:#4d4d9f;fill-rule:evenodd;stroke:none;stroke-linejoin:round"
         inkscape:box3dsidetype="5"
         d="M 20.43578,104.90367 59.263762,-94.779362 80.831074,-67.12993 29.634147,108.39912 Z"
         points="59.263762,-94.779362 80.831074,-67.12993 29.634147,108.39912 20.43578,104.90367 " />
      <path
         sodipodi:type="inkscape:box3dside"
         id="path1644"
         style="fill:#afafde;fill-rule:evenodd;stroke:none;stroke-linejoin:round"
         inkscape:box3dsidetype="13"
         d="M 20.43578,159.43136 59.263762,63.350927 80.831074,76.654859 29.634147,161.11324 Z"
         points="59.263762,63.350927 80.831074,76.654859 29.634147,161.11324 20.43578,159.43136 " />
      <path
         sodipodi:type="inkscape:box3dside"
         id="path1642"
         style="fill:#d7d7ff;fill-rule:evenodd;stroke:none;stroke-linejoin:round"
         inkscape:box3dsidetype="14"
         d="M 59.263762,-94.779362 V 63.350927 L 80.831074,76.654859 V -67.12993 Z"
         points="59.263762,63.350927 80.831074,76.654859 80.831074,-67.12993 59.263762,-94.779362 " />
      <path
         sodipodi:type="inkscape:box3dside"
         id="path1640"
         style="fill:#8686bf;fill-rule:evenodd;stroke:none;stroke-linejoin:round"
         inkscape:box3dsidetype="3"
         d="M 20.43578,104.90367 59.263762,-94.779362 V 63.350927 L 20.43578,159.43136 Z"
         points="59.263762,-94.779362 59.263762,63.350927 20.43578,159.43136 20.43578,104.90367 " />
    </g>
    <g
       sodipodi:type="inkscape:box3d"
       id="g1648"
       style="opacity:0.423077;fill:#d3b842;fill-opacity:0.42831218;stroke:#6330e5;stroke-opacity:0"
       inkscape:perspectiveID="#perspective1507"
       inkscape:corner0="1.5057471 : 0.43746551 : 0 : 1"
       inkscape:corner7="0.28235292 : 0.20215 : 0.25 : 1">
      <path
         sodipodi:type="inkscape:box3dside"
         id="path1660"
         style="fill:#d3b842;fill-opacity:0.42831218;fill-rule:evenodd;stroke:none;stroke-linejoin:round"
         inkscape:box3dsidetype="11"
         d="M 80.831074,76.654855 145.36468,-29.80475 v 153.56483 l -64.533606,38.2856 z"
         points="145.36468,-29.80475 145.36468,123.76008 80.831074,162.04568 80.831074,76.654855 " />
      <path
         sodipodi:type="inkscape:box3dside"
         id="path1650"
         style="fill:#d3b842;fill-opacity:0.42831218;fill-rule:evenodd;stroke:none;stroke-linejoin:round"
         inkscape:box3dsidetype="6"
         d="m 59.263762,63.350923 v 93.910317 l 21.567312,4.78444 V 76.654855 Z"
         points="59.263762,157.26124 80.831074,162.04568 80.831074,76.654855 59.263762,63.350923 " />
      <path
         sodipodi:type="inkscape:box3dside"
         id="path1652"
         style="fill:#d3b842;fill-opacity:0.42831218;fill-rule:evenodd;stroke:none;stroke-linejoin:round"
         inkscape:box3dsidetype="5"
         d="M 59.263762,63.350923 115.80275,-76.555678 145.36468,-29.80475 80.831074,76.654855 Z"
         points="115.80275,-76.555678 145.36468,-29.80475 80.831074,76.654855 59.263762,63.350923 " />
      <path
         sodipodi:type="inkscape:box3dside"
         id="path1658"
         style="fill:#d3b842;fill-opacity:0.42831218;fill-rule:evenodd;stroke:none;stroke-linejoin:round"
         inkscape:box3dsidetype="13"
         d="m 59.263762,157.26124 56.538988,-50.31399 29.56193,16.81283 -64.533606,38.2856 z"
         points="115.80275,106.94725 145.36468,123.76008 80.831074,162.04568 59.263762,157.26124 " />
      <path
         sodipodi:type="inkscape:box3dside"
         id="path1656"
         style="fill:#d3b842;fill-opacity:0.42831218;fill-rule:evenodd;stroke:none;stroke-linejoin:round"
         inkscape:box3dsidetype="14"
         d="M 115.80275,-76.555678 V 106.94725 l 29.56193,16.81283 V -29.80475 Z"
         points="115.80275,106.94725 145.36468,123.76008 145.36468,-29.80475 115.80275,-76.555678 " />
      <path
         sodipodi:type="inkscape:box3dside"
         id="path1654"
         style="fill:#d3b842;fill-opacity:0.42831218;fill-rule:evenodd;stroke:none;stroke-linejoin:round"
         inkscape:box3dsidetype="3"
         d="M 59.263762,63.350923 115.80275,-76.555678 V 106.94725 l -56.538988,50.31399 z"
         points="115.80275,-76.555678 115.80275,106.94725 59.263762,157.26124 59.263762,63.350923 " />
    </g>
    <g
       sodipodi:type="inkscape:box3d"
       id="g2649"
       style="opacity:0.423077;fill:#830b42;fill-opacity:0.30852994;stroke:#6330e5;stroke-opacity:0"
       inkscape:perspectiveID="#perspective2743"
       inkscape:corner0="-0.45487887 : 0.14216456 : 0 : 1"
       inkscape:corner7="-0.62665551 : 0.071103613 : 0.25 : 1">
      <path
         sodipodi:type="inkscape:box3dside"
         id="path2657"
         style="fill:#830b42;fill-opacity:0.30852994;fill-rule:evenodd;stroke:none;stroke-linejoin:round"
         inkscape:box3dsidetype="14"
         d="M 260.51009,0.30833759 V 181.1857 l -47.43715,1.12662 V 73.978057 Z"
         points="260.51009,181.1857 213.07294,182.31232 213.07294,73.978057 260.51009,0.30833759 " />
      <path
         sodipodi:type="inkscape:box3dside"
         id="path2661"
         style="fill:#830b42;fill-opacity:0.30852994;fill-rule:evenodd;stroke:none;stroke-linejoin:round"
         inkscape:box3dsidetype="11"
         d="M 122.44621,97.745889 213.07294,73.978057 V 182.31232 l -90.62673,0.36348 z"
         points="213.07294,73.978057 213.07294,182.31232 122.44621,182.6758 122.44621,97.745889 " />
      <path
         sodipodi:type="inkscape:box3dside"
         id="path2653"
         style="fill:#830b42;fill-opacity:0.30852994;fill-rule:evenodd;stroke:none;stroke-linejoin:round"
         inkscape:box3dsidetype="5"
         d="M 113.37248,58.190963 260.51009,0.30833759 213.07294,73.978057 122.44621,97.745889 Z"
         points="260.51009,0.30833759 213.07294,73.978057 122.44621,97.745889 113.37248,58.190963 " />
      <path
         sodipodi:type="inkscape:box3dside"
         id="path2651"
         style="fill:#830b42;fill-opacity:0.30852994;fill-rule:evenodd;stroke:none;stroke-linejoin:round"
         inkscape:box3dsidetype="6"
         d="M 113.37248,58.190963 V 182.07089 l 9.07373,0.60491 V 97.745889 Z"
         points="113.37248,182.07089 122.44621,182.6758 122.44621,97.745889 113.37248,58.190963 " />
      <path
         sodipodi:type="inkscape:box3dside"
         id="path2655"
         style="fill:#830b42;fill-opacity:0.30852994;fill-rule:evenodd;stroke:none;stroke-linejoin:round"
         inkscape:box3dsidetype="3"
         d="M 113.37248,58.190963 260.51009,0.30833759 V 181.1857 l -147.13761,0.88519 z"
         points="260.51009,0.30833759 260.51009,181.1857 113.37248,182.07089 113.37248,58.190963 " />
      <path
         sodipodi:type="inkscape:box3dside"
         id="path2659"
         style="fill:#830b42;fill-opacity:0.30852994;fill-rule:evenodd;stroke:none;stroke-linejoin:round"
         inkscape:box3dsidetype="13"
         d="m 113.37248,182.07089 147.13761,-0.88519 -47.43715,1.12662 -90.62673,0.36348 z"
         points="260.51009,181.1857 213.07294,182.31232 122.44621,182.6758 113.37248,182.07089 " />
    </g>
    <g
       sodipodi:type="inkscape:box3d"
       id="g2924"
       style="opacity:0.423077;fill:#006eda;fill-opacity:0.30241904;stroke:#6330e5;stroke-opacity:0"
       inkscape:perspectiveID="#perspective3018"
       inkscape:corner0="-0.43734288 : 0.11946391 : 0 : 1"
       inkscape:corner7="-0.67963997 : 0.10826737 : 0.25 : 1">
      <path
         sodipodi:type="inkscape:box3dside"
         id="path2932"
         style="fill:#006eda;fill-opacity:0.30241904;fill-rule:evenodd;stroke:none;stroke-linejoin:round"
         inkscape:box3dsidetype="14"
         d="M 180.45815,86.839438 V 121.7893 l -72.99818,52.3578 v -19.63066 z"
         points="180.45815,121.7893 107.45997,174.1471 107.45997,154.51644 180.45815,86.839438 " />
      <path
         sodipodi:type="inkscape:box3dside"
         id="path2936"
         style="fill:#006eda;fill-opacity:0.30241904;fill-rule:evenodd;stroke:none;stroke-linejoin:round"
         inkscape:box3dsidetype="11"
         d="M -8.9819805,180.37357 107.45997,154.51644 V 174.1471 L -8.9819805,194.15126 Z"
         points="107.45997,154.51644 107.45997,174.1471 -8.9819805,194.15126 -8.9819805,180.37357 " />
      <path
         sodipodi:type="inkscape:box3dside"
         id="path2928"
         style="fill:#006eda;fill-opacity:0.30241904;fill-rule:evenodd;stroke:none;stroke-linejoin:round"
         inkscape:box3dsidetype="5"
         d="M -19.156541,153.32917 180.45815,86.839438 107.45997,154.51644 -8.9819805,180.37357 Z"
         points="180.45815,86.839438 107.45997,154.51644 -8.9819805,180.37357 -19.156541,153.32917 " />
      <path
         sodipodi:type="inkscape:box3dside"
         id="path2926"
         style="fill:#006eda;fill-opacity:0.30241904;fill-rule:evenodd;stroke:none;stroke-linejoin:round"
         inkscape:box3dsidetype="6"
         d="m -19.156541,153.32917 v 19.8994 l 10.1745605,20.92269 v -13.77769 z"
         points="-19.156541,173.22857 -8.9819805,194.15126 -8.9819805,180.37357 -19.156541,153.32917 " />
      <path
         sodipodi:type="inkscape:box3dside"
         id="path2930"
         style="fill:#006eda;fill-opacity:0.30241904;fill-rule:evenodd;stroke:none;stroke-linejoin:round"
         inkscape:box3dsidetype="3"
         d="M -19.156541,153.32917 180.45815,86.839438 V 121.7893 l -199.614691,51.43927 z"
         points="180.45815,86.839438 180.45815,121.7893 -19.156541,173.22857 -19.156541,153.32917 " />
      <path
         sodipodi:type="inkscape:box3dside"
         id="path2934"
         style="fill:#006eda;fill-opacity:0.30241904;fill-rule:evenodd;stroke:none;stroke-linejoin:round"
         inkscape:box3dsidetype="13"
         d="M -19.156541,173.22857 180.45815,121.7893 107.45997,174.1471 -8.9819805,194.15126 Z"
         points="180.45815,121.7893 107.45997,174.1471 -8.9819805,194.15126 -19.156541,173.22857 " />
    </g>
    <g
       sodipodi:type="inkscape:box3d"
       id="g3929"
       style="opacity:0.423077;fill:#7c500e;fill-opacity:0.646098;stroke:#6330e5;stroke-opacity:0"
       inkscape:perspectiveID="#perspective4041"
       inkscape:corner0="-0.04340793 : 0.27107716 : 0 : 1"
       inkscape:corner7="-2.0357581 : -0.14052208 : 0.25 : 1">
      <path
         sodipodi:type="inkscape:box3dside"
         id="path3935"
         style="fill:#7c500e;fill-opacity:0.646098;fill-rule:evenodd;stroke:none;stroke-linejoin:round"
         inkscape:box3dsidetype="3"
         d="M 316.99639,151.94816 -42.67057,289.62195 135.52126,32.723968 124.05769,430.10661 Z"
         points="-42.67057,289.62195 135.52126,32.723968 124.05769,430.10661 316.99639,151.94816 " />
      <path
         sodipodi:type="inkscape:box3dside"
         id="path3931"
         style="fill:#7c500e;fill-opacity:0.646098;fill-rule:evenodd;stroke:none;stroke-linejoin:round"
         inkscape:box3dsidetype="6"
         d="m 316.99639,151.94816 -192.9387,278.15845 37.9906,-17.30879 152.96274,-220.52538 z"
         points="124.05769,430.10661 162.04829,412.79782 315.01103,192.27244 316.99639,151.94816 " />
      <path
         sodipodi:type="inkscape:box3dside"
         id="path3933"
         style="fill:#7c500e;fill-opacity:0.646098;fill-rule:evenodd;stroke:none;stroke-linejoin:round"
         inkscape:box3dsidetype="5"
         d="M 316.99639,151.94816 -42.67057,289.62195 -154.055,271.50376 315.01103,192.27244 Z"
         points="-42.67057,289.62195 -154.055,271.50376 315.01103,192.27244 316.99639,151.94816 " />
      <path
         sodipodi:type="inkscape:box3dside"
         id="path3941"
         style="fill:#7c500e;fill-opacity:0.646098;fill-rule:evenodd;stroke:none;stroke-linejoin:round"
         inkscape:box3dsidetype="11"
         d="M 315.01103,192.27244 -154.055,271.50376 80.831069,-67.12993 162.04829,412.79782 Z"
         points="-154.055,271.50376 80.831069,-67.12993 162.04829,412.79782 315.01103,192.27244 " />
      <path
         sodipodi:type="inkscape:box3dside"
         id="path3937"
         style="fill:#7c500e;fill-opacity:0.646098;fill-rule:evenodd;stroke:none;stroke-linejoin:round"
         inkscape:box3dsidetype="14"
         d="M -42.67057,289.62195 135.52126,32.723968 80.831069,-67.12993 -154.055,271.50376 Z"
         points="135.52126,32.723968 80.831069,-67.12993 -154.055,271.50376 -42.67057,289.62195 " />
      <path
         sodipodi:type="inkscape:box3dside"
         id="path3939"
         style="fill:#7c500e;fill-opacity:0.646098;fill-rule:evenodd;stroke:none;stroke-linejoin:round"
         inkscape:box3dsidetype="13"
         d="M 124.05769,430.10661 135.52126,32.723968 80.831069,-67.12993 162.04829,412.79782 Z"
         points="135.52126,32.723968 80.831069,-67.12993 162.04829,412.79782 124.05769,430.10661 " />
    </g>
    <g
       sodipodi:type="inkscape:box3d"
       id="g12545"
       style="opacity:0.423077;fill:#91230a;fill-opacity:0.450091;stroke:#6330e5;stroke-opacity:0"
       inkscape:perspectiveID="#perspective12639"
       inkscape:corner0="-0.64143182 : 0.032486574 : 0 : 1"
       inkscape:corner7="-0.75941424 : -0.0044158249 : 0.25 : 1">
      <path
         sodipodi:type="inkscape:box3dside"
         id="path12553"
         style="fill:#91230a;fill-opacity:0.450091;fill-rule:evenodd;stroke:none;stroke-linejoin:round"
         inkscape:box3dsidetype="14"
         d="m 286.15418,51.881534 98.52576,82.387116 -216.41116,66.95249 -48.31753,-40.40307 z"
         points="384.67994,134.26865 168.26878,201.22114 119.95125,160.81807 286.15418,51.881534 " />
      <path
         sodipodi:type="inkscape:box3dside"
         id="path12555"
         style="fill:#91230a;fill-opacity:0.450091;fill-rule:evenodd;stroke:none;stroke-linejoin:round"
         inkscape:box3dsidetype="13"
         d="M 154.88048,250.64237 384.67994,134.26865 168.26878,201.22114 74.826399,256.80849 Z"
         points="384.67994,134.26865 168.26878,201.22114 74.826399,256.80849 154.88048,250.64237 " />
      <path
         sodipodi:type="inkscape:box3dside"
         id="path12557"
         style="fill:#91230a;fill-opacity:0.450091;fill-rule:evenodd;stroke:none;stroke-linejoin:round"
         inkscape:box3dsidetype="11"
         d="m 35.876128,224.23833 84.075122,-63.42026 48.31753,40.40307 -93.442381,55.58735 z"
         points="119.95125,160.81807 168.26878,201.22114 74.826399,256.80849 35.876128,224.23833 " />
      <path
         sodipodi:type="inkscape:box3dside"
         id="path12549"
         style="fill:#91230a;fill-opacity:0.450091;fill-rule:evenodd;stroke:none;stroke-linejoin:round"
         inkscape:box3dsidetype="5"
         d="M 88.773401,195.36372 286.15418,51.881534 119.95125,160.81807 35.876128,224.23833 Z"
         points="286.15418,51.881534 119.95125,160.81807 35.876128,224.23833 88.773401,195.36372 " />
      <path
         sodipodi:type="inkscape:box3dside"
         id="path12547"
         style="fill:#91230a;fill-opacity:0.450091;fill-rule:evenodd;stroke:none;stroke-linejoin:round"
         inkscape:box3dsidetype="6"
         d="m 88.773401,195.36372 66.107079,55.27865 -80.054081,6.16612 -38.950271,-32.57016 z"
         points="154.88048,250.64237 74.826399,256.80849 35.876128,224.23833 88.773401,195.36372 " />
      <path
         sodipodi:type="inkscape:box3dside"
         id="path12551"
         style="fill:#91230a;fill-opacity:0.450091;fill-rule:evenodd;stroke:none;stroke-linejoin:round"
         inkscape:box3dsidetype="3"
         d="M 88.773401,195.36372 286.15418,51.881534 384.67994,134.26865 154.88048,250.64237 Z"
         points="286.15418,51.881534 384.67994,134.26865 154.88048,250.64237 88.773401,195.36372 " />
    </g>
    <g
       sodipodi:type="inkscape:box3d"
       id="g15246"
       style="opacity:0.423077;fill:#e38617;fill-opacity:0.700545;stroke:#6330e5;stroke-opacity:0"
       inkscape:perspectiveID="#perspective15340"
       inkscape:corner0="16.860182 : -0.067090806 : 0 : 1"
       inkscape:corner7="-0.19849713 : -0.8519372 : 0.25 : 1">
      <path
         sodipodi:type="inkscape:box3dside"
         id="path15258"
         style="fill:#e9e9ff;fill-rule:evenodd;stroke:none;stroke-width:0.518118;stroke-linejoin:round"
         inkscape:box3dsidetype="11"
         d="M 15.340128,149.32654 264.20518,169.35163 V 319.41632 L 15.340128,158.03951 Z"
         points="264.20518,169.35163 264.20518,319.41632 15.340128,158.03951 15.340128,149.32654 " />
      <path
         sodipodi:type="inkscape:box3dside"
         id="path15248"
         style="fill:#353564;fill-rule:evenodd;stroke:none;stroke-width:0.592924;stroke-linejoin:round"
         inkscape:box3dsidetype="6"
         d="m 10.369902,149.34382 v 8.83493 l 4.970226,-0.13924 v -8.71297 z"
         points="10.369902,158.17875 15.340128,158.03951 15.340128,149.32654 10.369902,149.34382 " />
      <path
         sodipodi:type="inkscape:box3dside"
         id="path15256"
         style="fill:#afafde;fill-rule:evenodd;stroke:none;stroke-width:0.685134;stroke-linejoin:round"
         inkscape:box3dsidetype="13"
         d="M 10.369902,158.17875 231.07633,372.85472 264.20518,319.41632 15.340128,158.03951 Z"
         points="231.07633,372.85472 264.20518,319.41632 15.340128,158.03951 10.369902,158.17875 " />
      <path
         sodipodi:type="inkscape:box3dside"
         id="path15250"
         style="fill:#4d4d9f;fill-rule:evenodd;stroke:none;stroke-width:0.448386;stroke-linejoin:round"
         inkscape:box3dsidetype="5"
         d="M 10.369902,149.34382 231.07633,175.98275 264.20518,169.35163 15.340128,149.32654 Z"
         points="231.07633,175.98275 264.20518,169.35163 15.340128,149.32654 10.369902,149.34382 " />
      <path
         sodipodi:type="inkscape:box3dside"
         id="path15254"
         style="fill:#d7d7ff;fill-rule:evenodd;stroke:none;stroke-width:0.518118;stroke-linejoin:round"
         inkscape:box3dsidetype="14"
         d="m 231.07633,175.98275 v 196.87197 l 33.12885,-53.4384 V 169.35163 Z"
         points="231.07633,372.85472 264.20518,319.41632 264.20518,169.35163 231.07633,175.98275 " />
      <path
         sodipodi:type="inkscape:box3dside"
         id="path15252"
         style="fill:#8686bf;fill-rule:evenodd;stroke:none;stroke-width:0.592924;stroke-linejoin:round"
         inkscape:box3dsidetype="3"
         d="M 10.369902,149.34382 231.07633,175.98275 V 372.85472 L 10.369902,158.17875 Z"
         points="231.07633,175.98275 231.07633,372.85472 10.369902,158.17875 10.369902,149.34382 " />
    </g>
    <g
       sodipodi:type="inkscape:box3d"
       id="g20225"
       style="opacity:0.423077;fill:#855c09;fill-opacity:0.515427;stroke:#6330e5;stroke-opacity:0"
       inkscape:perspectiveID="#perspective20331"
       inkscape:corner0="-0.62957992 : 0.28568198 : 0 : 1"
       inkscape:corner7="-0.69450749 : -0.10976994 : 0.25 : 1">
      <path
         sodipodi:type="inkscape:box3dside"
         id="path20233"
         style="fill:#855c09;fill-opacity:0.515427;fill-rule:evenodd;stroke:none;stroke-width:0.951442;stroke-linejoin:round"
         inkscape:box3dsidetype="14"
         d="M 424.24913,66.644732 V 281.6089 L 318.10693,243.96626 V 125.74694 Z"
         points="424.24913,281.6089 318.10693,243.96626 318.10693,125.74694 424.24913,66.644732 " />
      <path
         sodipodi:type="inkscape:box3dside"
         id="path20235"
         style="fill:#855c09;fill-opacity:0.515427;fill-rule:evenodd;stroke:none;stroke-width:0.951442;stroke-linejoin:round"
         inkscape:box3dsidetype="13"
         d="M 317.98307,266.94826 424.24913,281.6089 318.10693,243.96626 265.76896,239.1525 Z"
         points="424.24913,281.6089 318.10693,243.96626 265.76896,239.1525 317.98307,266.94826 " />
      <path
         sodipodi:type="inkscape:box3dside"
         id="path20237"
         style="fill:#855c09;fill-opacity:0.515427;fill-rule:evenodd;stroke:none;stroke-width:0.951442;stroke-linejoin:round"
         inkscape:box3dsidetype="11"
         d="m 265.76896,133.30496 52.33797,-7.55802 v 118.21932 l -52.33797,-4.81376 z"
         points="318.10693,125.74694 318.10693,243.96626 265.76896,239.1525 265.76896,133.30496 " />
      <path
         sodipodi:type="inkscape:box3dside"
         id="path20229"
         style="fill:#855c09;fill-opacity:0.515427;fill-rule:evenodd;stroke:none;stroke-width:0.951442;stroke-linejoin:round"
         inkscape:box3dsidetype="5"
         d="m 317.98307,89.663207 106.26606,-23.018475 -106.1422,59.102208 -52.33797,7.55802 z"
         points="424.24913,66.644732 318.10693,125.74694 265.76896,133.30496 317.98307,89.663207 " />
      <path
         sodipodi:type="inkscape:box3dside"
         id="path20227"
         style="fill:#855c09;fill-opacity:0.515427;fill-rule:evenodd;stroke:none;stroke-width:0.951442;stroke-linejoin:round"
         inkscape:box3dsidetype="6"
         d="M 317.98307,89.663207 V 266.94826 L 265.76896,239.1525 V 133.30496 Z"
         points="317.98307,266.94826 265.76896,239.1525 265.76896,133.30496 317.98307,89.663207 " />
      <path
         sodipodi:type="inkscape:box3dside"
         id="path20231"
         style="fill:#855c09;fill-opacity:0.515427;fill-rule:evenodd;stroke:none;stroke-width:0.951442;stroke-linejoin:round"
         inkscape:box3dsidetype="3"
         d="M 317.98307,89.663207 424.24913,66.644732 V 281.6089 L 317.98307,266.94826 Z"
         points="424.24913,66.644732 424.24913,281.6089 317.98307,266.94826 317.98307,89.663207 " />
    </g>
    <rect
       style="opacity:0.423077;fill:#f1e8c3;fill-opacity:0.0816697;stroke:#6330e5;stroke-width:0.265507;stroke-opacity:0"
       id="rect28048"
       width="257.69681"
       height="389.79056"
       x="-151.92509"
       y="-15.170431"
       ry="70.631073"
       transform="matrix(0.8529487,-0.52199475,0.61875499,0.78558402,0,0)" />
    <ellipse
       style="opacity:0.423077;fill:#f1e8c3;fill-opacity:0.08;stroke:#6330e5;stroke-width:0.264583;stroke-opacity:0"
       id="path32333"
       cx="330.79501"
       cy="282.47552"
       rx="98.356323"
       ry="83.567276" />
    <g
       sodipodi:type="inkscape:box3d"
       id="g33506"
       style="opacity:0.423077;fill:#7a441d;fill-opacity:0.60254103;stroke:#6330e5;stroke-opacity:0"
       inkscape:perspectiveID="#perspective34706"
       inkscape:corner0="-2.6375216 : -0.46189501 : 0 : 1"
       inkscape:corner7="-2.6641766 : -1.4418881 : 0.2531151 : 1">
      <path
         sodipodi:type="inkscape:box3dside"
         id="path33512"
         style="fill:#7a441d;fill-opacity:0.60254103;fill-rule:evenodd;stroke:none;stroke-linejoin:round"
         inkscape:box3dsidetype="3"
         d="m 591.09522,85.076292 -1.34587,-1.439637 -37.17073,84.519695 0.74082,2.81542 z"
         points="589.74935,83.636655 552.57862,168.15635 553.31944,170.97177 591.09522,85.076292 " />
      <path
         sodipodi:type="inkscape:box3dside"
         id="path33508"
         style="fill:#7a441d;fill-opacity:0.60254103;fill-rule:evenodd;stroke:none;stroke-linejoin:round"
         inkscape:box3dsidetype="6"
         d="m 591.09522,85.076292 -37.77578,85.895478 70.45047,59.40215 44.68244,-101.6 z"
         points="553.31944,170.97177 623.76991,230.37392 668.45235,128.77392 591.09522,85.076292 " />
      <path
         sodipodi:type="inkscape:box3dside"
         id="path33510"
         style="fill:#7a441d;fill-opacity:0.60254103;fill-rule:evenodd;stroke:none;stroke-linejoin:round"
         inkscape:box3dsidetype="5"
         d="m 591.09522,85.076292 -1.34587,-1.439637 75.65443,42.613935 3.04857,2.52333 z"
         points="589.74935,83.636655 665.40378,126.25059 668.45235,128.77392 591.09522,85.076292 " />
      <path
         sodipodi:type="inkscape:box3dside"
         id="path33518"
         style="fill:#7a441d;fill-opacity:0.60254103;fill-rule:evenodd;stroke:none;stroke-linejoin:round"
         inkscape:box3dsidetype="11"
         d="m 668.45235,128.77392 -3.04857,-2.52333 -43.83839,99.68077 2.20452,4.44256 z"
         points="665.40378,126.25059 621.56539,225.93136 623.76991,230.37392 668.45235,128.77392 " />
      <path
         sodipodi:type="inkscape:box3dside"
         id="path33514"
         style="fill:#7a441d;fill-opacity:0.60254103;fill-rule:evenodd;stroke:none;stroke-linejoin:round"
         inkscape:box3dsidetype="14"
         d="m 589.74935,83.636655 -37.17073,84.519695 68.98677,57.77501 43.83839,-99.68077 z"
         points="552.57862,168.15635 621.56539,225.93136 665.40378,126.25059 589.74935,83.636655 "
         transform="translate(-0.96508242,13.094584)" />
      <path
         sodipodi:type="inkscape:box3dside"
         id="path33516"
         style="fill:#7a441d;fill-opacity:0.60254103;fill-rule:evenodd;stroke:none;stroke-linejoin:round"
         inkscape:box3dsidetype="13"
         d="m 553.31944,170.97177 -0.74082,-2.81542 68.98677,57.77501 2.20452,4.44256 z"
         points="552.57862,168.15635 621.56539,225.93136 623.76991,230.37392 553.31944,170.97177 " />
    </g>
    <text
       xml:space="preserve"
       transform="matrix(1.5281542,-0.8537507,0.91293689,1.6340934,-1808.8811,367.54274)"
       id="text42585"
       style="font-style:normal;font-variant:normal;font-weight:normal;font-stretch:normal;font-size:40px;line-height:1.25;font-family:Harrington;-inkscape-font-specification:'Harrington, Normal';font-variant-ligatures:normal;font-variant-caps:normal;font-variant-numeric:normal;font-variant-east-asian:normal;white-space:pre;shape-inside:url(#rect42587);fill:#75450b;fill-opacity:0.72549021;stroke:none;stroke-width:0.146167"><tspan
         x="1112.2207"
         y="443.94462"
         id="tspan91695">?</tspan></text>
    <text
       xml:space="preserve"
       transform="matrix(2.114942,-1.0003766,0.91881166,2.7467576,-751.00018,28.637736)"
       id="text58452"
       style="font-style:normal;font-variant:normal;font-weight:normal;font-stretch:normal;font-size:40px;line-height:1.25;font-family:'Lucida Calligraphy';-inkscape-font-specification:'Lucida Calligraphy, Normal';font-variant-ligatures:normal;font-variant-caps:normal;font-variant-numeric:normal;font-variant-east-asian:normal;white-space:pre;shape-inside:url(#rect58454);fill:#7e5522;fill-opacity:0.72251302;stroke:none;stroke-width:0.102001"
       inkscape:transform-center-x="3.6887729"
       inkscape:transform-center-y="-36.030155"><tspan
         x="334.69531"
         y="152.41427"
         id="tspan91697">!</tspan></text>
  </g>
</svg>
