<?xml version="1.0" encoding="UTF-8" standalone="no"?>
<svg
   viewBox="0 0 512 470"
   version="1.1"
   id="svg4"
   sodipodi:docname="icons_radiation-1.svg"
   inkscape:version="1.2.2 (732a01da63, 2022-12-09)"
   width="512"
   height="470"
   xmlns:inkscape="http://www.inkscape.org/namespaces/inkscape"
   xmlns:sodipodi="http://sodipodi.sourceforge.net/DTD/sodipodi-0.dtd"
   xmlns="http://www.w3.org/2000/svg"
   xmlns:svg="http://www.w3.org/2000/svg">
  <defs
     id="defs8" />
  <sodipodi:namedview
     id="namedview6"
     pagecolor="#505050"
     bordercolor="#ffffff"
     borderopacity="1"
     inkscape:showpageshadow="0"
     inkscape:pageopacity="0"
     inkscape:pagecheckerboard="1"
     inkscape:deskcolor="#505050"
     showgrid="false"
     inkscape:zoom="1.1103786"
     inkscape:cx="210.73893"
     inkscape:cy="186.8732"
     inkscape:window-width="1920"
     inkscape:window-height="991"
     inkscape:window-x="-9"
     inkscape:window-y="-9"
     inkscape:window-maximized="1"
     inkscape:current-layer="svg4" />
  <!--! Font Awesome Pro 6.4.0 by @fontawesome - https://fontawesome.com License - https://fontawesome.com/license (Commercial License) Copyright 2023 Fonticons, Inc. -->
  <path
     d="m 215.74924,141.69203 c -24.04964,13.9328 -40.25044,40.08203 -40.25044,69.96688 H 30.597182 c -17.810823,0 -32.4016102,-14.53858 -30.18783566,-32.20698 C 9.1638188,108.67736 46.49611,46.787464 100.33108,5.6958078 114.51936,-5.1071584 134.34272,0.34480577 143.29844,15.792038 Z m 40.25046,150.73671 c 14.6914,0 28.37656,-3.93753 40.25044,-10.80296 l 72.4508,126.00095 c 8.8551,15.44724 3.72318,35.43776 -12.67888,42.30321 -30.7916,13.02413 -64.60198,20.19245 -100.02236,20.19245 -35.4204,0 -69.3314,-7.16832 -100.02238,-20.19245 -16.40204,-6.96641 -21.53398,-26.85597 -12.67888,-42.30321 l 72.4508,-126.00095 c 11.87388,6.86543 25.55904,10.80296 40.25046,10.80296 z M 481.4022,211.65891 H 336.50058 c 0,-29.88485 -16.2008,-56.03408 -40.25044,-69.96688 L 368.70094,15.792038 C 377.55604,0.34480577 397.48002,-5.1071584 411.6683,5.6958078 465.6039,46.787464 502.83556,108.67736 511.69066,179.45193 c 2.21378,17.6684 -12.47764,32.20698 -30.18784,32.20698 z M 255.9997,163.197 a 48.300539,48.461906 0 1 1 0,96.92381 48.300539,48.461906 0 1 1 0,-96.92381 z"
     id="path2"
     style="stroke-width:1.00794" />
</svg>
