<?xml version="1.0" encoding="UTF-8" standalone="no"?>
<svg
   viewBox="0 0 448 448"
   version="1.1"
   id="svg42410"
   sodipodi:docname="icons_skin.svg"
   inkscape:version="1.2.2 (732a01da63, 2022-12-09)"
   width="448"
   height="448"
   xmlns:inkscape="http://www.inkscape.org/namespaces/inkscape"
   xmlns:sodipodi="http://sodipodi.sourceforge.net/DTD/sodipodi-0.dtd"
   xmlns:xlink="http://www.w3.org/1999/xlink"
   xmlns="http://www.w3.org/2000/svg"
   xmlns:svg="http://www.w3.org/2000/svg">
  <defs
     id="defs42414">
    <linearGradient
       inkscape:collect="always"
       id="linearGradient42923">
      <stop
         style="stop-color:#49f466;stop-opacity:0.96373057;"
         offset="0"
         id="stop42919" />
      <stop
         style="stop-color:#3ec774;stop-opacity:0.34715027;"
         offset="1"
         id="stop42921" />
    </linearGradient>
    <radialGradient
       inkscape:collect="always"
       xlink:href="#linearGradient42923"
       id="radialGradient42925"
       cx="224"
       cy="256"
       fx="224"
       fy="256"
       r="224"
       gradientTransform="matrix(1,0,0,0.99786775,0,-31.931769)"
       gradientUnits="userSpaceOnUse" />
  </defs>
  <sodipodi:namedview
     id="namedview42412"
     pagecolor="#505050"
     bordercolor="#ffffff"
     borderopacity="1"
     inkscape:showpageshadow="0"
     inkscape:pageopacity="0"
     inkscape:pagecheckerboard="1"
     inkscape:deskcolor="#505050"
     showgrid="false"
     inkscape:zoom="0.78515625"
     inkscape:cx="-110.80597"
     inkscape:cy="265.55224"
     inkscape:window-width="1920"
     inkscape:window-height="991"
     inkscape:window-x="-9"
     inkscape:window-y="-9"
     inkscape:window-maximized="1"
     inkscape:current-layer="svg42410" />
  <!--! Font Awesome Pro 6.4.0 by @fontawesome - https://fontawesome.com License - https://fontawesome.com/license (Commercial License) Copyright 2023 Fonticons, Inc. -->
  <path
     d="M 288,0 H 160 128 c -17.7,0 -32,12.485821 -32,27.940299 0,15.454477 14.3,27.940298 32,27.940298 V 171.83284 c 0,10.30298 -3.3,20.51865 -9.5,29.24999 L 10.3,354.66716 C 3.6,364.27164 0,375.18582 0,386.44925 c 0,33.44105 31.1,60.59552 69.4,60.59552 h 309.2 c 38.3,0 69.4,-27.15447 69.4,-60.59552 0,-11.17612 -3.6,-22.17761 -10.3,-31.78209 L 329.5,201.17014 C 323.3,192.35149 320,182.22313 320,171.92015 V 55.880597 c 17.7,0 32,-12.485821 32,-27.940298 C 352,12.485821 337.7,0 320,0 Z M 324.45771,300.46966 269.69154,204.89552 256,55.880597 V 171.83284 c 0,20.69328 6.6,40.94999 19,58.58731 l 34.5,48.98284 -122.60199,-193.59204 -4.98259,110.22114 c 12.4,-17.63732 152.83061,122.39202 142.54229,104.43757 z"
     id="path42408"
     style="fill:url(#radialGradient42925);fill-opacity:1;stroke-width:0.934417"
     sodipodi:nodetypes="ccsscsccssssccscsscsccsccccs" />
</svg>
